<svg width="50" height="50" viewBox="0 0 50 50" fill="none" xmlns="http://www.w3.org/2000/svg">
<g id="bi:arrow-left-short">
<path id="Vector" fill-rule="evenodd" clip-rule="evenodd" d="M12.0001 24.9394C12.0001 24.525 12.1648 24.1276 12.4578 23.8346C12.7508 23.5416 13.1482 23.3769 13.5626 23.3769H31.6658L24.9564 16.6707C24.8111 16.5254 24.6959 16.3529 24.6173 16.1631C24.5386 15.9733 24.4982 15.7699 24.4982 15.5644C24.4982 15.359 24.5386 15.1555 24.6173 14.9657C24.6959 14.7759 24.8111 14.6035 24.9564 14.4582C25.1017 14.3129 25.2741 14.1977 25.4639 14.119C25.6537 14.0404 25.8572 14 26.0626 14C26.2681 14 26.4715 14.0404 26.6613 14.119C26.8511 14.1977 27.0236 14.3129 27.1689 14.4582L36.5439 23.8332C36.6894 23.9783 36.8048 24.1508 36.8836 24.3406C36.9624 24.5304 37.0029 24.7339 37.0029 24.9394C37.0029 25.145 36.9624 25.3485 36.8836 25.5383C36.8048 25.7281 36.6894 25.9005 36.5439 26.0457L27.1689 35.4207C26.8755 35.7141 26.4776 35.8789 26.0626 35.8789C25.6477 35.8789 25.2498 35.7141 24.9564 35.4207C24.663 35.1273 24.4982 34.7294 24.4982 34.3144C24.4982 33.8995 24.663 33.5016 24.9564 33.2082L31.6658 26.5019H13.5626C13.1482 26.5019 12.7508 26.3373 12.4578 26.0443C12.1648 25.7513 12.0001 25.3538 12.0001 24.9394Z" fill="black"/>
</g>
</svg>
