<svg width="70" height="70" viewBox="0 0 70 70" fill="none" xmlns="http://www.w3.org/2000/svg">
<g id="eva:arrow-ios-forward-outline">
<path id="Vector" d="M40.8336 55.4167C41.5151 55.418 42.1755 55.1806 42.7002 54.7458C42.9956 54.501 43.2397 54.2003 43.4186 53.8609C43.5976 53.5216 43.7078 53.1503 43.7431 52.7682C43.7783 52.3862 43.7378 52.001 43.6239 51.6347C43.51 51.2683 43.325 50.928 43.0794 50.6333L30.0127 35L42.6127 19.3375C42.855 19.0392 43.0359 18.6959 43.1451 18.3274C43.2543 17.9589 43.2896 17.5725 43.2489 17.1903C43.2083 16.8081 43.0925 16.4378 42.9082 16.1005C42.724 15.7632 42.4749 15.4657 42.1752 15.225C41.8735 14.9595 41.5201 14.7592 41.1372 14.6367C40.7544 14.5142 40.3503 14.4722 39.9505 14.5133C39.5506 14.5544 39.1636 14.6777 38.8136 14.8754C38.4637 15.0732 38.1584 15.3412 37.9169 15.6625L23.8294 33.1625C23.4004 33.6844 23.1659 34.339 23.1659 35.0146C23.1659 35.6901 23.4004 36.3448 23.8294 36.8667L38.4127 54.3667C38.7053 54.7196 39.077 54.9986 39.4976 55.1811C39.9182 55.3635 40.3759 55.4442 40.8336 55.4167Z" fill="#545454"/>
</g>
</svg>
