<svg width="70" height="70" viewBox="0 0 70 70" fill="none" xmlns="http://www.w3.org/2000/svg">
<g id="eva:arrow-ios-forward-outline">
<path id="Vector" d="M29.1667 55.4167C28.4852 55.418 27.8247 55.1806 27.3 54.7458C27.0047 54.501 26.7605 54.2003 26.5816 53.8609C26.4027 53.5216 26.2924 53.1503 26.2572 52.7682C26.222 52.3862 26.2625 52.001 26.3763 51.6347C26.4902 51.2683 26.6752 50.928 26.9208 50.6333L39.9875 35L27.3875 19.3375C27.1452 19.0392 26.9643 18.6959 26.8551 18.3274C26.746 17.9589 26.7107 17.5725 26.7513 17.1903C26.792 16.8081 26.9078 16.4378 27.092 16.1005C27.2763 15.7632 27.5254 15.4657 27.825 15.225C28.1268 14.9595 28.4802 14.7592 28.863 14.6367C29.2459 14.5142 29.6499 14.4722 30.0498 14.5133C30.4496 14.5544 30.8367 14.6777 31.1866 14.8754C31.5366 15.0732 31.8419 15.3412 32.0833 15.6625L46.1708 33.1625C46.5998 33.6844 46.8343 34.339 46.8343 35.0146C46.8343 35.6901 46.5998 36.3448 46.1708 36.8667L31.5875 54.3667C31.2949 54.7196 30.9232 54.9986 30.5026 55.1811C30.082 55.3635 29.6243 55.4442 29.1667 55.4167Z" fill="#545454"/>
</g>
</svg>
