<svg width="73" height="30" viewBox="0 0 73 30" fill="none" xmlns="http://www.w3.org/2000/svg">
<g id="Social">
<g id="001-facebook">
<path id="Path" d="M10.8155 5.72744H13.2311V1.52031C12.8143 1.46298 11.3811 1.33398 9.7119 1.33398C6.22911 1.33398 3.84331 3.52465 3.84331 7.55097V11.2565H0V15.9597H3.84331V27.7939H8.55538V15.9608H12.2432L12.8287 11.2576H8.55428V8.01733C8.55538 6.65795 8.92141 5.72744 10.8155 5.72744Z" fill="white"/>
</g>
<g id="004-instagram">
<path id="Shape" fill-rule="evenodd" clip-rule="evenodd" d="M52.8334 0H63.8334C68.8952 0 73.0001 4.10483 73.0001 9.16667V20.1667C73.0001 25.2285 68.8952 29.3333 63.8334 29.3333H52.8334C47.7716 29.3333 43.6667 25.2285 43.6667 20.1667V9.16667C43.6667 4.10483 47.7716 0 52.8334 0ZM63.8334 26.5833C67.3717 26.5833 70.2501 23.705 70.2501 20.1667V9.16667C70.2501 5.62833 67.3717 2.75 63.8334 2.75H52.8334C49.2951 2.75 46.4167 5.62833 46.4167 9.16667V20.1667C46.4167 23.705 49.2951 26.5833 52.8334 26.5833H63.8334Z" fill="white"/>
<path id="Shape_2" fill-rule="evenodd" clip-rule="evenodd" d="M51 14.6668C51 10.617 54.2835 7.3335 58.3333 7.3335C62.3832 7.3335 65.6667 10.617 65.6667 14.6668C65.6667 18.7167 62.3832 22.0002 58.3333 22.0002C54.2835 22.0002 51 18.7167 51 14.6668ZM53.75 14.6668C53.75 17.1932 55.807 19.2502 58.3333 19.2502C60.8597 19.2502 62.9167 17.1932 62.9167 14.6668C62.9167 12.1387 60.8597 10.0835 58.3333 10.0835C55.807 10.0835 53.75 12.1387 53.75 14.6668Z" fill="white"/>
<circle id="Oval" cx="66.2167" cy="6.78332" r="0.977167" fill="white"/>
</g>
</g>
</svg>
